<svg style="position: absolute; width: 0; height: 0; overflow: hidden;" version="1.1" xmlns="http://www.w3.org/2000/svg" xmlns:xlink="http://www.w3.org/1999/xlink">
<defs>

<symbol id="icon-heart-full" viewBox="0 0 32 32">
<title>heart-full</title>
<path d="M16.042 8.345c0 0-2-4.262-6.5-4.262-4.917 0-7.5 4.167-7.5 8.333 0 6.917 14 15.5 14 15.5s13.916-8.5 13.916-15.5c0-4.25-2.666-8.333-7.416-8.333s-6.5 4.262-6.5 4.262z"></path>
</symbol>
<symbol id="icon-office" viewBox="0 0 32 32">
<path d="M0 32h16v-32h-16v32zM10 4h4v4h-4v-4zM10 12h4v4h-4v-4zM10 20h4v4h-4v-4zM2 4h4v4h-4v-4zM2 12h4v4h-4v-4zM2 20h4v4h-4v-4zM18 10h14v2h-14zM18 32h4v-8h6v8h4v-18h-14z"></path>
</symbol>
<symbol id="icon-pen" viewBox="0 0 32 32">
<path d="M31.818 9.122l-8.939-8.939c-0.292-0.292-0.676-0.226-0.855 0.146l-1.199 2.497 8.35 8.35 2.497-1.199c0.372-0.178 0.438-0.563 0.146-0.855z"></path>
<path d="M19.231 4.231l-8.231 0.686c-0.547 0.068-1.002 0.184-1.159 0.899-0 0.001-0 0.001-0.001 0.002-2.232 10.721-9.84 21.183-9.84 21.183l1.793 1.793 8.5-8.5c-0.187-0.392-0.293-0.83-0.293-1.293 0-1.657 1.343-3 3-3s3 1.343 3 3-1.343 3-3 3c-0.463 0-0.902-0.105-1.293-0.293l-8.5 8.5 1.793 1.793c0 0 10.462-7.608 21.183-9.84 0.001-0 0.001-0 0.002-0.001 0.714-0.157 0.831-0.612 0.898-1.159l0.686-8.231-8.538-8.539z"></path>
</symbol>
<symbol id="icon-image" viewBox="0 0 32 32">
<path d="M29.996 4c0.001 0.001 0.003 0.002 0.004 0.004v23.993c-0.001 0.001-0.002 0.003-0.004 0.004h-27.993c-0.001-0.001-0.003-0.002-0.004-0.004v-23.993c0.001-0.001 0.002-0.003 0.004-0.004h27.993zM30 2h-28c-1.1 0-2 0.9-2 2v24c0 1.1 0.9 2 2 2h28c1.1 0 2-0.9 2-2v-24c0-1.1-0.9-2-2-2v0z"></path>
<path d="M26 9c0 1.657-1.343 3-3 3s-3-1.343-3-3 1.343-3 3-3 3 1.343 3 3z"></path>
<path d="M28 26h-24v-4l7-12 8 10h2l7-6z"></path>
</symbol>
<symbol id="icon-library" viewBox="0 0 34 32">
<path d="M32 30v-2h-2v-12h2v-2h-6v2h2v12h-6v-12h2v-2h-6v2h2v12h-6v-12h2v-2h-6v2h2v12h-6v-12h2v-2h-6v2h2v12h-2v2h-2v2h34v-2h-2z"></path>
<path d="M16 0h2l16 10v2h-34v-2l16-10z"></path>
</symbol>
<symbol id="icon-file-text" viewBox="0 0 32 32">
<path d="M27 0h-24c-1.65 0-3 1.35-3 3v26c0 1.65 1.35 3 3 3h24c1.65 0 3-1.35 3-3v-26c0-1.65-1.35-3-3-3zM26 28h-22v-24h22v24zM8 14h14v2h-14zM8 18h14v2h-14zM8 22h14v2h-14zM8 10h14v2h-14z"></path>
</symbol>
<symbol id="icon-price-tag" viewBox="0 0 32 32">
<path d="M30.5 0h-12c-0.825 0-1.977 0.477-2.561 1.061l-14.879 14.879c-0.583 0.583-0.583 1.538 0 2.121l12.879 12.879c0.583 0.583 1.538 0.583 2.121 0l14.879-14.879c0.583-0.583 1.061-1.736 1.061-2.561v-12c0-0.825-0.675-1.5-1.5-1.5zM23 12c-1.657 0-3-1.343-3-3s1.343-3 3-3 3 1.343 3 3-1.343 3-3 3z"></path>
</symbol>
<symbol id="icon-clock" viewBox="0 0 32 32">
<path d="M20.586 23.414l-6.586-6.586v-8.828h4v7.172l5.414 5.414zM16 0c-8.837 0-16 7.163-16 16s7.163 16 16 16 16-7.163 16-16-7.163-16-16-16zM16 28c-6.627 0-12-5.373-12-12s5.373-12 12-12c6.627 0 12 5.373 12 12s-5.373 12-12 12z"></path>
</symbol>
<symbol id="icon-earth" viewBox="0 0 32 32">
<path d="M16 0c-8.837 0-16 7.163-16 16s7.163 16 16 16 16-7.163 16-16-7.163-16-16-16zM16 30c-1.967 0-3.84-0.407-5.538-1.139l7.286-8.197c0.163-0.183 0.253-0.419 0.253-0.664v-3c0-0.552-0.448-1-1-1-3.531 0-7.256-3.671-7.293-3.707-0.188-0.188-0.442-0.293-0.707-0.293h-4c-0.552 0-1 0.448-1 1v6c0 0.379 0.214 0.725 0.553 0.894l3.447 1.724v5.871c-3.627-2.53-6-6.732-6-11.489 0-2.147 0.484-4.181 1.348-6h3.652c0.265 0 0.52-0.105 0.707-0.293l4-4c0.188-0.188 0.293-0.442 0.293-0.707v-2.419c1.268-0.377 2.61-0.581 4-0.581 2.2 0 4.281 0.508 6.134 1.412-0.13 0.109-0.256 0.224-0.376 0.345-1.133 1.133-1.757 2.64-1.757 4.243s0.624 3.109 1.757 4.243c1.139 1.139 2.663 1.758 4.239 1.758 0.099 0 0.198-0.002 0.297-0.007 0.432 1.619 1.211 5.833-0.263 11.635-0.014 0.055-0.022 0.109-0.026 0.163-2.541 2.596-6.084 4.208-10.004 4.208z"></path>
</symbol>
<symbol id="icon-flag" viewBox="0 0 32 32">
<path d="M0 0h4v32h-4v-32z"></path>
<path d="M26 20.094c2.582 0 4.83-0.625 6-1.547v-16c-1.17 0.922-3.418 1.547-6 1.547s-4.83-0.625-6-1.547v16c1.17 0.922 3.418 1.547 6 1.547z"></path>
<path d="M19 1.016c-1.466-0.623-3.61-1.016-6-1.016-3.012 0-5.635 0.625-7 1.547v16c1.365-0.922 3.988-1.547 7-1.547 2.39 0 4.534 0.393 6 1.016v-16z"></path>
</symbol>
<symbol id="icon-happy" viewBox="0 0 32 32">
<path d="M16 32c8.837 0 16-7.163 16-16s-7.163-16-16-16-16 7.163-16 16 7.163 16 16 16zM16 3c7.18 0 13 5.82 13 13s-5.82 13-13 13-13-5.82-13-13 5.82-13 13-13zM16 18.711c3.623 0 7.070-0.963 10-2.654-0.455 5.576-4.785 9.942-10 9.942s-9.544-4.371-10-9.947c2.93 1.691 6.377 2.658 10 2.658zM8 11c0-1.657 0.895-3 2-3s2 1.343 2 3c0 1.657-0.895 3-2 3s-2-1.343-2-3zM20 11c0-1.657 0.895-3 2-3s2 1.343 2 3c0 1.657-0.895 3-2 3s-2-1.343-2-3z"></path>
</symbol>


</defs>
</svg>

